<?xml version="1.0" encoding="utf-8"?>
<!-- Generator: Adobe Adobe Illustrator 29.2.0, SVG Export Plug-In . SVG Version: 6.00 Build 0)  -->
<svg version="1.1" id="Layer_1" xmlns="http://www.w3.org/2000/svg" xmlns:xlink="http://www.w3.org/1999/xlink" x="0px" y="0px"
	 width="800px" height="800px" viewBox="0 0 800 800" style="enable-background:new 0 0 800 800;" xml:space="preserve">
<g>
	<g>
		<path d="M923.43,661.9c0,69.84,0,139.68-0.92,210.63c-33.52,4.47-65.58,7.83-91.35,32.67c-10.79,10.4-22.39,11.62-31.51-7.61
			c-11.67-24.61-19.94-49.37-23.5-76.23c-1.69-12.77-11.08-15.97-21.62-9.91c-53.2,30.64-100.45,68.58-139.81,115.97
			c-159.06,0-318.13,0-478.34-0.9c-5.3-23.36,3.18-50.25-20.68-66.05c-81.53-54-164.87-104.38-263-123.01
			c0-136.76,0-273.52,0.55-411.8c29.14-51.77,73.91-87.25,117.31-122.59c32.09-26.14,63.74-51.35,83.07-88.26
			C67.95,87.49,92.4,58.42,73.71,27.16C57.58,0.2,50.8-25.2,56.76-54.69c6.45-31.91,15.29-63.83-16.24-88.6
			c51.13,0,102.26,0,153.84,0.45c-23.23,24.06-47.66,47.96-51.28,83.21c-3.21,31.31-2.91,59.11,44.53,56.61
			c44.08-2.32,36.81-45.95,60.26-62.61c43.39-30.83,28.32-54.58-6.58-77.67c214.47,0,428.94,0,644.26,0.68
			c2.75,25.56,18.79,40.51,37.89,53.29c0,202.96,0,405.92-0.7,610.13c-49.02,28.67-96.44,56.37-150.83,72.9
			c-45.78,13.92-18.1,42.1-5.21,68.52c7.48,15.31,7.14,34.72,27.65,38.42c21.53,3.88,42.22-5.52,49.96-24.33
			C864.4,627.44,894.42,651.38,923.43,661.9z M156.08,707.42c3.68,2.11,7.66,3.83,11,6.39c167.03,127.72,428.17,84.81,545.48-89.71
			c126.4-188.05,89.32-408.47-91.95-546.51C482.78-27.36,279.05-20.74,145.13,93.05C-47.66,256.87-43.05,549.02,156.08,707.42z"/>
		<path d="M400.43,29.98c148.05,5.35,242.41,90.68,303.45,213.07c64.95,130.24,25.53,322.43-76.72,427.04
			c-9.74,9.96-17.98,21.58-28.57,30.46c-6.2,5.2-15.67,6.51-23.67,9.58c3.56-8.07,5.11-18.19,10.97-23.9
			c111.36-108.47,147.97-243.71,113.19-389.19c-40-167.32-222.12-289.31-384.97-213.59c-58.49,27.19-81.24,128.63-45.15,185.68
			c40.39,63.85,122.19,79.6,180.67,34.78c57.86-44.35,62.81-127.22,11.32-185.05c-3.78-4.24-5.59-10.23-8.32-15.41
			c6.49,1.74,14.56,1.61,19.24,5.53c38.44,32.23,54.25,74.03,44.47,122.98c-12.36,61.89-52.12,99.45-112.14,116.54
			c-4.26,1.22-8.4,2.89-12.6,4.34c4.02,1.79,7.87,4.15,12.07,5.27c82.56,22.03,133.38,75.19,149.63,158.51
			c17.44,89.43-19.81,154.28-90.3,209.67c-86.26,67.78-167.39,30.07-241.96-9.68C53.47,627.29-9.34,451.05,52.11,270.75
			C101.14,126.91,243.43,28.25,400.43,29.98z M368.14,703.83c59.97-23.25,105.91-61.55,112.08-128.63
			c5.36-58.22-15.16-106.87-75.24-130.91c-62.45-24.98-131.63-0.79-155.61,55.79c-24.45,57.7,1.16,124.62,56.84,147.87
			c44.5,18.58,80.93,3.61,108.72-31.41c27.43-34.57,28.5-73.15-0.46-107.59c-24.43-29.07-56.96-37.26-92.1-19.51
			c-27.11,13.69-40.14,37.66-35.06,67.73c4.95,29.31,22.27,49.82,54.25,49.96c26.43,0.12,40.26-16.93,43.6-41.9
			c2.21-16.52-5.78-28.62-21.59-34.29c-10.81-3.88-20.23-0.55-25.59,9.82c-6.08,11.78,1.27,19.71,9.52,26.83
			c2.89,2.49,6.03,4.68,9.06,7.01c-6.73,2.96-13.89,9.09-20.1,8.23c-14.14-1.95-22.34-13.25-24.92-26.58
			c-3.11-16.09,3.93-29.67,16.07-40.02c17.45-14.87,36.55-13.22,55.1-2.62c22.4,12.79,29.78,33.98,26.24,58.03
			c-4.25,28.9-22.67,49.43-49.83,56.75c-43.98,11.85-74.7-11.78-89.99-49.56c-20.16-49.8,0.7-89.98,46.43-112.86
			c46.02-23.03,90.92-10.12,119.81,29.94c35.78,49.62,28.93,101.42-12.72,147.14c-36.6,40.16-123.9,63.31-164.93,44.22
			C142.02,633.41,93.11,534.89,82.71,415.03c-8.86-102.11,35.31-187.32,100.03-263.16c4.7-5.5,10.58-12.3,1.81-18.07
			c-3.83-2.52-13.15-2.75-15.92,0.03c-115.72,116.03-143.18,293-68.04,434.85C162.62,685.78,260.87,735.95,368.14,703.83z
			 M526.64,523.42c-16.15-77.9-86.94-137.77-165.84-140.28c-76.34-2.43-144.49,48.69-164.7,123.53
			c-20.1,74.48,22.93,159.52,88.33,174.12c7.46,1.66,16.43,4.24,20.18-6.01c0.79-2.16-2.13-7.71-4.59-8.74
			c-58.4-24.48-88.54-68.16-83.58-131.35c4.92-62.63,40.34-104.46,100.65-121.32c60.5-16.91,113.48,3.08,153.1,48.71
			c59.81,68.88,47.27,151.61-28.03,223.46c-6.17,5.88-25.31,10.85-13.95,23.05c10.52,11.3,21.41-2.45,30.88-9.74
			C516.62,654.59,538.14,596.43,526.64,523.42z M163.48,457.63c-12.7-6.51-22.92-3.24-30.31,8.43c-5.09,8.04-3.79,16.3,3.55,22.07
			c8.88,6.97,19.33,7.2,27.3-0.89C172.32,478.79,173.22,468.46,163.48,457.63z"/>
		<path d="M330.15,198.44c5.74-30.41,24.53-43.68,53.19-38.53c24.69,4.43,38.07,21.62,34.22,47.38
			c-3.69,24.72-19.68,40.04-44.87,38.92C344.79,244.95,331.04,227.06,330.15,198.44z"/>
		<path d="M535.59,723.06c-4.75,4.4-8.49,8.96-13.18,12.08c-16.74,11.1-35.03,17.22-55.45,15.23
			c12.98-10.23,25.36-21.36,39.06-30.52c58.57-39.12,85.67-95.97,93.44-163.82c0.98-8.56,4.64-13.31,12.75-11.77
			c7.92,1.51,13.76,6.75,12.05,16.1C612.66,624.05,585.49,679.33,535.59,723.06z"/>
		<path d="M622.88,515.84c5.57,10.12,0.32,16.86-7.37,19.31c-4.53,1.44-14.3-1.79-15.74-5.34c-1.95-4.79,0-13.53,3.6-17.68
			C609.58,504.97,616.86,508.6,622.88,515.84z"/>
	</g>
</g>
</svg>
